<svg width="60" height="70" viewBox="0 0 60 70" fill="none" xmlns="http://www.w3.org/2000/svg">
<path fill-rule="evenodd" clip-rule="evenodd" d="M18.3857 40.3742H15.9566L15.2132 38.2831H11.165L10.4877 40.3742H8.09866L11.7491 29.8127H14.364L18.3861 40.3742H18.3857ZM13.0892 32.337L11.7617 36.4409H14.549L13.0887 32.337H13.0892Z" fill="black"/>
<path fill-rule="evenodd" clip-rule="evenodd" d="M27.2098 29.8123H29.174V40.3742H26.9177V33.7771L24.4751 37.0909H24.13L21.6878 33.7771V40.3742H19.4311V29.8123H21.3958L24.3028 33.7303L27.2098 29.8123Z" fill="black"/>
<path fill-rule="evenodd" clip-rule="evenodd" d="M34.8926 29.8123C38.1979 29.8123 39.8971 32.2126 39.8971 35.1085C39.8971 38.1435 38.251 40.3737 34.6406 40.3737H30.8975V29.8123H34.8931H34.8926ZM33.1538 38.438H34.6271C36.8969 38.438 37.5737 36.6415 37.5737 35.0932C37.5737 33.2815 36.7376 31.7485 34.6006 31.7485H33.1538V38.4386V38.438Z" fill="black"/>
<path fill-rule="evenodd" clip-rule="evenodd" d="M49.0155 32.2781H44.3769L41.5572 28.9732L51.9 28.9585V41.0398L49.0155 37.6593V32.2781Z" fill="black"/>
<path fill-rule="evenodd" clip-rule="evenodd" d="M44.3769 37.6746L44.3899 32.8845L41.5572 36.1275V41.0247L45.6756 41.0289L48.5866 37.6746H44.3769Z" fill="black"/>
</svg>
