<svg xmlns="http://www.w3.org/2000/svg" width="128" height="128" fill-rule="evenodd" clip-rule="evenodd" image-rendering="optimizeQuality" shape-rendering="geometricPrecision" text-rendering="geometricPrecision" viewBox="0 0 1333.33 1333.33" id="avengers-logo"><path fill-rule="nonzero" d="M299.46 817.52l0 0c-21.9,0 -42.52,-5.55 -60.56,-15.33l-10.75 22.22c21.29,11.39 45.56,17.83 71.31,17.83 48.68,0 92.04,-23.04 120.02,-58.92l-33.24 0c-22.84,21.23 -53.31,34.19 -86.78,34.19z"></path><polygon fill-rule="nonzero" points="326.46 740.66 326.46 740.66 328.13 740.66 328.13 760.33 378.01 722.03 328.13 675.14 328.13 695.43 315.55 695.43 274.92 695.43 328.13 569.06 328.13 657.8 328.13 662.17 371.21 702.93 372.28 488.24 325.14 488.24 152.87 843.96 210.07 845.08 256.3 740.66 309.59 740.66"></polygon><path fill-rule="nonzero" d="M187.99 752.09l0 0c-10.74,-18.98 -16.88,-40.96 -16.88,-64.39 0,-65.26 47.62,-119.27 109.63,-128.43l12.57 -25.97c-81.53,3.26 -146.65,71.13 -146.65,154.4 0,33.42 10.49,64.36 28.31,89.64l13.01 -25.25z"></path><polygon fill-rule="nonzero" points="371.13 775.99 371.13 775.99 371.13 737.68 326.41 775.99"></polygon><path d="M795.62 636.34c.63-3.76 1.88-7.31 2.93-10.65.62-2.3 1.46-4.38 2.09-6.68.62-2.5.62-3.76-2.93-3.76-6.89 0-13.57 0-20.46 0-2.5 0-2.72.21-3.34 2.72-4.18 13.78-8.14 27.76-12.11 41.54-3.55 12.52-7.31 25.05-11.06 37.57-2.5 8.56-5.01 16.91-7.51 25.46-.84 2.72-1.67 5.43-2.3 8.35-.83 3.13-.21 3.97 2.92 3.97 6.89 0 13.98 0 20.87 0 1.46 0 1.88-.63 2.3-1.88 1.25-4.38 2.5-8.56 3.76-12.94 2.5-8.76 5.01-17.54 7.72-26.51 2.3-8.14 4.8-16.49 7.31-24.63.63-2.09.63-3.76-.21-5.85-1.04-3.34-2.09-6.47-3.13-10.02 15.65 0 31.1 0 46.76 0-1.67 6.05-3.34 11.69-5.01 17.54-1.87 6.68-3.96 13.57-6.05 20.25-2.72 9.39-5.64 18.58-8.35 27.97-2.09 7.09-3.97 14.19-6.06 21.29-2.92 10.23-6.05 20.24-8.98 30.48-.83 2.92-1.67 5.64-2.3 8.56-.21 1.25-.83 1.88-2.09 2.29-7.91 2.18-15.83 4.73-23.74 6.77l-.13.04-1.18.3-4.23 1.2-.17.05-.17.05-.17.05-.17.05-.17.05-16.48 4.56 1.73-6.94 0-.01 2.74-10.96.16-.62c.42-1.67.21-2.09-2.09-2.09-12.52 0-25.05 0-37.36 0-1.46 0-2.71 0-4.18-.21-4.8-.62-8.76-2.5-11.48-6.89-2.09-3.34-2.51-7.1-1.46-10.85 1.25-5.64 3.13-11.27 4.59-16.7 1.88-6.68 3.96-13.36 5.84-20.24 1.88-6.48 3.76-13.15 5.84-19.62 2.09-6.89 3.97-13.78 6.06-20.67 2.5-8.35 5.01-16.7 7.31-25.26 2.71-9.39 5.63-19 8.35-28.39 2.92-10.64 6.47-21.29 9.6-32.15.83-3.13 1.88-6.06 3.34-8.98 2.93-5.01 7.1-8.14 12.73-9.39 1.67-.42 3.34-.21 5.01-.21 23.17 0 46.55 0 69.72 0 2.93 0 5.85.21 8.56 1.87 4.17 2.5 5.64 6.48 6.05 10.85.21 3.97-1.04 7.73-2.09 11.48-3.13 10.64-6.26 21.29-9.39 31.94-.41 1.25-1.04 2.71-1.25 3.96-.21 1.46-1.04 2.09-2.51 1.88-.21 0-.62 0-.83 0-10.02 0-20.04 0-30.06 0-1.26 0-2.09 0-3.13 0zM1028.57 673.08c1.46 1.04 2.71 1.88 3.76 2.71 3.76 2.72 6.47 6.06 7.52 10.65.63 2.71.63 5.43 0 7.93-1.88 7.51-4.18 14.82-6.26 22.13-2.71 9.6-5.63 19.41-8.56 29.01-2.51 8.77-5.01 17.33-7.72 26.09-.63 1.88-.63 1.88-2.72 1.88-10.02 0-19.83 0-29.85 0-1.88 0-3.76 0-5.43 0-.63 0-1.25.21-1.67-.42 2.3-8.14 4.8-16.49 7.1-24.63 2.93-9.6 5.63-19.2 8.56-28.8 2.3-7.93 4.59-16.07 6.89-24 .42-1.04.42-2.09 0-3.34-.62-1.26-1.25-2.09-2.71-2.09-6.26 0-12.31 0-18.58 0-1.46 0-1.67 1.04-1.88 2.09-1.88 6.26-3.55 12.52-5.43 18.79-2.71 8.98-5.22 17.95-7.93 27.13-3.34 11.28-6.68 22.34-9.81 33.61-.42 1.04-.63 1.88-2.09 1.88-12.74 0-25.26 0-37.99 0-.21 0-.42-.21-.83-.21 1.25-4.18 2.3-8.35 3.55-12.52 1.26-4.18 2.51-8.56 3.76-12.74 2.3-7.72 4.59-15.44 6.89-23.17 2.93-10.23 5.64-20.25 8.77-30.48 2.51-8.14 4.8-16.28 7.1-24.42 3.13-10.65 6.05-21.29 9.18-31.94 3.13-11.06 6.47-21.92 9.81-32.77 2.3-7.93 4.59-15.86 6.89-23.59.63-2.09 1.25-3.97 1.67-6.06.21-1.25.83-1.88 2.3-1.67.42 0 1.04 0 1.67 0 25.05 0 50.31 0 75.35 0 2.5 0 4.8 0 7.31.63 5.22 1.46 8.35 5.01 10.02 10.02 1.88 6.26 1.46 12.31-.42 18.58-2.51 8.56-5.01 17.11-7.52 25.88-2.72 9.6-5.43 19-8.35 28.6-1.46 4.59-4.8 7.72-8.98 10.02-4.17 2.3-8.56 3.76-13.35 5.22zm-16.49-59.28c-3.34 0-6.89 0-10.23 0-1.46 0-2.09.63-2.3 1.67-.63 2.3-1.26 4.59-1.88 6.68-2.51 8.56-5.01 17.12-7.31 25.46-.63 1.88-.63 1.88 1.25 1.88 6.26 0 12.53 0 18.79 0 2.5 0 3.55-.62 4.38-3.34 1.04-3.34 2.09-6.89 3.13-10.23.83-2.5 1.46-5.01 2.09-7.52 1.26-4.38 2.72-8.77 3.97-13.15.42-1.46.21-1.88-1.46-1.88-3.76.42-7.09.42-10.44.42zM664.11 665.98c1.26-3.13 1.88-5.84 2.72-8.77 2.5-8.98 5.22-17.74 7.72-26.72 3.13-11.06 6.47-21.92 9.6-32.98 2.09-7.52 4.38-15.03 6.47-22.34.21-.83.63-1.04 1.46-1.04.42 0 .83 0 1.25 0 10.23 0 20.25 0 30.48 0 .63 0 1.46-.21 2.3.42-1.25 3.97-2.3 8.14-3.55 12.11-2.09 6.89-3.97 13.57-6.06 20.45-4.59 15.66-9.39 31.52-13.98 47.18-3.55 11.69-6.89 23.59-10.23 35.28-3.13 10.85-6.47 21.71-9.81 32.77-3.76 12.53-7.31 25.05-11.06 37.57-1.25 3.96-2.51 7.93-3.55 11.9-.42 1.25-.83 1.67-2.09 1.67-10.23 0-20.67 0-30.89 0-1.25 0-1.67-.42-1.67-1.67 0-3.34 0-6.68 0-10.02 0-14.61 0-29.43 0-44.05 0-11.9 0-23.8-.21-35.69 0-.63 0-1.46-.63-2.3-1.04 3.55-2.09 7.1-3.13 10.65-4.38 15.24-8.98 30.48-13.36 45.71-2.3 7.52-4.38 15.24-6.68 22.75-1.25 4.18-2.5 8.56-3.76 12.74-.42 1.25-.83 1.67-2.09 1.67-11.27 0-22.33 0-33.61 0-.21 0-.42-.21-.83-.21-.42-1.25.21-2.5.63-3.55 3.76-12.31 7.31-24.84 10.85-37.15 3.34-11.48 6.68-22.75 10.02-34.03 3.13-10.85 6.26-21.5 9.39-32.35 2.92-10.65 6.47-21.29 9.6-32.15 1.88-6.47 3.76-13.15 5.64-19.62 1.88-6.47 3.96-13.15 5.84-19.62 1.88-6.05 3.55-12.31 5.43-18.37.63-2.09.63-2.09 2.71-2.09 3.76 0 7.72 0 11.48 0 6.68 0 13.36 0 20.25 0 2.3 0 2.3 0 2.3 2.3 0 19.41.21 38.82.21 58.24 0 9.6 0 19.2 0 28.81.2.63 0 1.46.83 2.51zM1091.61 708.56c-.83 3.13-1.67 6.47-2.72 9.6-1.25 4.18-2.5 8.56-3.76 12.74-.83 2.5 0 3.55 2.71 3.55 8.77 0 17.74 0 26.51 0 1.46 0 1.88-.42 2.3-1.88 2.09-7.72 4.38-15.24 6.68-22.96.63-2.3.63-2.3-1.04-3.55-2.71-2.3-5.43-4.59-7.93-6.68-6.68-5.63-13.36-11.27-20.04-16.91-5.84-4.8-11.48-9.81-17.33-14.61-4.8-3.96-6.26-8.98-5.01-15.03.83-4.38 2.5-8.56 3.76-12.94 1.67-6.06 3.55-12.11 5.22-18.16 2.71-9.39 5.22-18.79 8.35-28.18.62-1.88.83-3.76 1.46-5.43 2.5-6.89 7.09-11.48 14.4-13.36 2.5-.63 5.22-.63 7.72-.63 19.83 0 39.45 0 59.28 0 2.3 0 4.59 0 6.68.83 5.01 1.67 7.72 5.64 7.72 10.85 0 .83 0 1.67 0 2.3.42 5.43-1.04 10.65-2.72 15.87-2.3 7.31-4.38 14.82-6.68 22.33-.63 2.3-1.46 4.59-2.09 7.1-.42 1.25-.83 1.67-2.3 1.67-10.02 0-20.04 0-30.06 0-1.88 0-2.09-.21-1.46-2.09 1.67-4.38 2.71-9.18 4.18-13.57 1.04-3.34.62-3.97-2.93-3.97-7.52 0-15.03 0-22.54 0-3.34 0-3.76.21-4.8 3.55-1.25 3.96-2.3 7.93-3.55 12.11-.42 1.67-.83 3.13-1.46 4.8-.42 1.46-.21 2.72.63 3.97.83 1.04 1.67 1.88 2.5 2.71 7.72 6.89 15.66 13.57 23.38 20.46 6.05 5.22 12.11 10.65 18.16 16.07 2.51 2.3 4.8 4.8 6.26 7.93 1.25 2.71 1.25 5.63.63 8.56-1.25 5.43-3.13 10.85-4.59 16.28-2.3 7.52-4.39 15.24-6.68 22.75-1.88 6.47-3.55 12.94-5.84 19.2-3.76 10.23-10.44 17.54-21.5 20.25-1.46.42-2.93.42-4.38.42-20.25 0-40.7 0-60.95 0-2.5 0-5.01-.21-7.52-1.04-6.26-2.3-9.39-7.51-8.98-14.19.21-3.34 1.25-6.47 2.3-9.6 3.76-12.94 7.72-25.88 11.48-38.82.42-1.04.83-1.67 1.87-1.67 11.28 0 22.34 0 33.61 0 .41-1.05.63-.84 1.04-.63zM426.78 679.55c4.59-11.06 9.18-22.33 13.57-33.4 4.8-11.69 9.39-23.59 13.98-35.28 3.55-8.56 6.89-17.12 10.44-25.68 1.25-3.13 2.71-6.47 3.96-9.6.42-1.04 1.04-1.46 2.09-1.46 1.26 0 2.72 0 3.97 0 11.9 0 23.8 0 35.7 0 .83 0 1.67-.21 2.71.21-.21 2.09-1.46 3.97-2.3 5.85-3.13 7.52-6.47 15.03-9.6 22.54-3.34 7.72-6.47 15.44-9.81 23.38-3.34 7.93-6.68 15.86-10.02 23.8-3.34 8.14-6.89 16.28-10.23 24.42-5.64 13.15-11.06 26.51-16.7 39.66-4.17 10.23-8.56 20.25-12.73 30.48-3.97 9.18-7.93 18.58-11.69 27.76-.63 1.25-1.25 1.46-2.3 1.46-4.8 0-9.39 0-14.19 0-7.93 0-15.87 0-23.8 0-2.3 0-2.3 0-2.3-2.51 0-26.09 0-52.39 0-78.48 0-27.34 0-54.9 0-82.24 0-11.07 0-21.92 0-32.98 0-.62 0-1.25 0-1.88 0-1.04.42-1.46 1.46-1.25.62 0 1.04 0 1.67 0 12.31 0 24.63 0 36.95 0 .63 0 1.04 0 1.67 0 .83 0 1.25.21 1.25 1.25-.21 2.09 0 4.39-.21 6.47-.42 2.51-.21 4.8-.42 7.31-.21 8.35-.42 16.49-.83 24.84-.63 16.07-1.25 32.15-1.67 48.43-.21 5.43-.21 10.85-.63 16.28-.42 0-.63.41 0 .62zM562.67 734.44c-1.46 4.8-2.72 9.39-3.97 13.78-1.88 6.68-3.97 13.15-5.84 19.83-.63 1.88-.63 4.18-1.88 5.22-1.26 1.04-3.55.42-5.43.42-18.58 0-37.15 0-55.73 0-2.93 0-5.64-.21-8.56-1.25-6.47-2.51-9.81-9.19-8.35-15.66 1.88-8.77 4.8-17.11 7.1-25.67 1.88-6.89 3.96-13.57 5.84-20.46 2.3-7.72 4.59-15.24 6.68-22.96 2.51-8.77 5.22-17.33 7.72-26.09 3.34-11.06 6.47-22.33 9.81-33.4 2.09-6.89 3.76-13.98 6.06-20.87 1.88-6.05 3.55-12.31 5.43-18.37 2.71-8.14 8.14-12.73 16.49-14.4 1.88-.42 3.76-.21 5.43-.21 20.67 0 41.12 0 61.79 0 .42 0 1.04 0 1.67 0-.63 3.76-2.09 7.31-3.13 11.06-2.09 7.31-4.18 14.4-6.26 21.71-.42 1.46-.83 2.93-1.25 4.59-.63 2.09-.63 2.09-2.92 2.09-10.65 0-21.09 0-31.73 0-2.92 0-2.92 0-3.76 2.72-1.04 3.76-2.09 7.72-3.34 11.48-1.88 6.47-3.76 12.74-5.63 19.2-.21.63-.42 1.25-.21 2.3 3.13.21 6.26 0 9.39 0 3.13 0 6.47 0 9.6 0 3.13 0 6.26 0 9.39 0 3.13 0 6.47 0 9.81 0-1.04 2.92-2.93 5.01-4.38 7.52-5.85 9.18-11.9 18.37-17.74 27.76-1.67 2.51-3.34 3.34-6.26 3.34-6.47-.21-13.15 0-19.62 0-2.09 0-2.09 0-2.72 1.88-2.71 8.98-5.01 17.95-7.93 26.72-1.46 4.59-2.51 9.39-4.18 13.98-.21.63-.21 1.25-.42 1.88-.21 1.04.42 1.67 1.46 1.88.83.21 1.67.21 2.5.21 10.44 0 20.87 0 31.1 0 1.88-.21 2.72-.21 3.97-.21zM905.83 734.87c-.42 1.87-.83 3.76-1.46 5.84-2.93 10.44-6.06 20.87-8.98 31.31-.42 1.46-1.04 1.67-2.5 1.67-5.85 0-11.9 0-17.74 0-13.98 0-28.18 0-42.17 0-3.34 0-6.47-.42-9.39-1.88-4.59-2.5-6.89-6.26-7.31-11.48-.21-3.76 1.04-7.1 1.88-10.44.63-2.09 1.25-4.17 1.88-6.26 2.71-9.19 5.43-18.37 8.14-27.56 3.76-12.94 7.72-26.09 11.48-39.04 2.71-9.6 5.43-19.2 8.35-28.59 3.55-12.11 7.1-24.42 10.85-36.53 2.3-7.72 4.39-15.44 6.89-23.17 1.88-5.84 5.63-10.23 11.27-12.52 2.09-.83 4.38-1.46 6.47-1.46 15.65 0 31.52-.21 47.17-.21 6.06 0 12.11 0 18.16 0 .42 0 .83 0 1.46 0-.21 2.93-1.25 5.64-2.09 8.14-2.5 8.14-4.59 16.28-7.09 24.21-.63 2.09-1.26 3.97-1.88 6.06-.21 1.04-.83 1.25-1.67 1.25-.62 0-1.25 0-1.88 0-10.23 0-20.24 0-30.47 0-2.51 0-2.51 0-3.34 2.5-1.25 4.18-2.5 8.14-3.55 12.31-1.88 6.68-3.76 13.15-5.63 19.83 0 .42-.42.62 0 1.25 2.92.21 6.26 0 9.39 0 3.13 0 6.47 0 9.6 0 3.13 0 6.47 0 9.6 0 3.13 0 6.47 0 10.02 0-2.5 3.96-4.8 7.52-7.09 11.06-4.8 7.52-9.6 15.03-14.41 22.33-.42.63-1.25 1.25-1.46 2.09-.83 2.5-2.71 2.72-5.01 2.72-6.68-.21-13.36 0-20.25 0-2.5 0-2.5 0-3.13 2.5-3.76 12.94-7.52 26.09-11.27 39.04-.21.83-.42 1.67-.63 2.5-.21 1.67.21 2.3 1.88 2.5.63 0 1.46 0 2.09 0 10.23 0 20.46 0 30.69 0 1.25-.42 2.08-.63 3.13 0z"></path></svg>