<svg width="60" height="70" viewBox="0 0 60 70" fill="none" xmlns="http://www.w3.org/2000/svg">
<g clip-path="url(#clip0_118_32)">
<path d="M59.899 20.5895C59.8985 19.4157 59.6564 18.3784 59.1668 17.4882C58.6859 16.6128 57.9656 15.8791 56.9995 15.299C49.0249 10.5309 41.0426 5.77748 33.0705 1.00459C30.9213 -0.282016 28.8375 -0.235111 26.7042 1.06997C23.5301 3.01106 7.63828 12.4521 2.90273 15.2963C0.9525 16.467 0.00351563 18.2586 0.00304688 20.5873C0 30.1761 0.00304688 39.7647 0 49.3537C0.00046875 50.5018 0.232266 51.5189 0.700312 52.3957C1.18148 53.2976 1.9118 54.0515 2.90016 54.6447C7.63594 57.4889 23.5298 66.9293 26.7033 68.8708C28.8375 70.1766 30.9213 70.2233 33.0713 68.9362C41.0435 64.1631 49.0263 59.4099 57.0021 54.6418C57.9905 54.0488 58.7208 53.2945 59.202 52.3933C59.6693 51.5164 59.9016 50.4994 59.902 49.351C59.902 49.351 59.902 30.1785 59.899 20.5895Z" fill="#5C8DBC"/>
<path d="M30.0427 34.8772L0.700317 52.3959C1.18149 53.2978 1.9118 54.0516 2.90016 54.6449C7.63594 57.4891 23.5298 66.9294 26.7033 68.8709C28.8375 70.1768 30.9213 70.2234 33.0713 68.9363C41.0435 64.1632 49.0263 59.41 57.0021 54.642C57.9905 54.049 58.7208 53.2946 59.202 52.3934L30.0427 34.8772Z" fill="#1A4674"/>
<path d="M21.3518 40.0664C23.0592 43.1573 26.269 45.242 29.951 45.242C33.6558 45.242 36.8838 43.1308 38.5826 40.0069L30.0427 34.8772L21.3518 40.0664Z" fill="#1A4674"/>
<path d="M59.899 20.5896C59.8985 19.4158 59.6564 18.3785 59.1668 17.4883L30.0427 34.8772L59.202 52.3934C59.6693 51.5165 59.9016 50.4995 59.902 49.3511C59.902 49.3511 59.902 30.1786 59.899 20.5896Z" fill="#1B598E"/>
<path d="M58.2956 36.1293H56.017V38.4925H53.738V36.1293H51.4596V33.7668H53.738V31.4041H56.017V33.7668H58.2956V36.1293ZM49.9812 36.1293H47.7028V38.4925H45.4242V36.1293H43.1456V33.7668H45.4242V31.4041H47.7028V33.7668H49.9812V36.1293Z" fill="white"/>
<path d="M38.5826 40.0069C36.8838 43.1308 33.6558 45.242 29.951 45.242C26.269 45.242 23.0592 43.1573 21.3518 40.0664C20.4941 38.5155 20.0436 36.7584 20.0454 34.9705C20.0454 29.2979 24.4805 24.6993 29.951 24.6993C33.6094 24.6993 36.8023 26.758 38.5181 29.8173L47.1762 24.6475C43.7349 18.4877 37.3099 14.3435 29.951 14.3435C18.9645 14.3435 10.0584 23.5787 10.0584 34.9705C10.0584 38.7079 11.0173 42.2126 12.6931 45.2357C16.1257 51.4281 22.5689 55.5978 29.951 55.5978C37.3467 55.5978 43.8 51.4114 47.2277 45.2007L38.5826 40.0069Z" fill="white"/>
</g>
<defs>
<clipPath id="clip0_118_32">
<rect width="60" height="70" fill="white"/>
</clipPath>
</defs>
</svg>
