<svg xmlns="http://www.w3.org/2000/svg" width="513.422" height="80.14" data-name="chanel logo" id="chanel-logo"><path d="M436.151 77.843V62.961h-42.928V45.79h34.343V30.908h-34.343V17.171h39.494V1.717h-54.948v76.126ZM457.9 1.717v76.126h55.52V62.961h-40.064V1.717Zm-362.886 0v76.126h15.454V45.79h36.06v32.053h14.884V1.717h-14.883v29.191h-36.06V1.717Zm153.97 76.126h16.6L230.668 1.717h-20.033l-34.343 76.126h16.029l8.011-17.171h40.641Zm31.483-76.126v76.126h15.454V22.9l41.209 54.943h12.02V1.717H333.7v45.79l-34.34-45.79ZM61.817 52.086a24.481 24.481 0 0 1-21.75 13.165 25.26 25.26 0 0 1-25.185-25.185 24.9 24.9 0 0 1 25.185-24.612 23.82 23.82 0 0 1 21.75 13.165l13.737-7.441A41.034 41.034 0 0 0 40.067 0C17.825.1-.154 18.082 0 40.066a39.564 39.564 0 0 0 40.067 40.067 40.074 40.074 0 0 0 35.487-20.606Z" data-name="Path 52065"></path><path fill="#fff" d="M234.675 45.218h-27.474l13.739-30.336Z" data-name="Path 52066"></path></svg>