<svg width="60" height="70" viewBox="0 0 60 70" fill="none" xmlns="http://www.w3.org/2000/svg">
<g clip-path="url(#clip0_118_51)">
<path d="M59.8907 13.7219L54.4441 64.2072L29.9609 69.8231L5.54531 64.215L0.104279 13.7219H59.8907Z" fill="#E44D26"/>
<path d="M29.9975 65.5304L49.7811 60.9924L54.4354 17.8503H29.9975V65.5304Z" fill="#F16529"/>
<path d="M19.4093 30.2362H29.9975V24.0435H11.2296L11.4087 25.7048L13.2484 42.7705H29.9975V36.5777H20.0934L19.4093 30.2362ZM21.0962 45.867H13.5828L14.6313 55.5906L29.9631 59.1119L29.9975 59.1042V52.661L29.9647 52.6682L21.6291 50.806L21.0962 45.867Z" fill="#EBEBEB"/>
<path d="M5.66672 0H9.47031V3.10928H12.9498V0H16.7536V9.41568H12.95V6.26277H9.47054V9.41568H5.66695L5.66672 0ZM21.7552 3.12247H18.4072V0H28.9096V3.12247H25.5595V9.41568H21.7559V3.12247H21.7552ZM30.5764 0H34.5424L36.982 3.30842L39.4193 0H43.387V9.41568H39.5988V4.74875L36.982 8.09654H36.9164L34.2979 4.74875V9.41568H30.5764V0ZM45.2798 0H49.0846V6.30349H54.4335V9.41568H45.2796V0H45.2798Z" fill="black"/>
<path d="M29.9717 42.7705H39.1882L38.3192 50.8021L29.9715 52.6663V59.109L45.3155 55.5906L45.4279 54.5443L47.187 38.2407L47.3696 36.5777H29.9717V42.7705ZM29.9717 30.2211V30.2362H48.0506L48.2006 28.8444L48.5418 25.7048L48.7206 24.0435H29.9717V30.2211Z" fill="white"/>
</g>
<defs>
<clipPath id="clip0_118_51">
<rect width="60" height="70" fill="white"/>
</clipPath>
</defs>
</svg>
