<svg width="60" height="70" viewBox="0 0 60 70" fill="none" xmlns="http://www.w3.org/2000/svg">
<g clip-path="url(#clip0_118_5)">
<path d="M0 0H60V70H0V0Z" fill="#F7DF1E"/>
<path d="M15.7763 58.4969L20.3677 55.2551C21.2536 57.0874 22.0594 58.6378 23.9923 58.6378C25.845 58.6378 27.0134 57.7923 27.0134 54.5034V32.1367H32.6517V54.5964C32.6517 61.4096 29.2284 64.5109 24.2339 64.5109C19.7234 64.5109 17.1052 61.7856 15.776 58.4964M35.7143 57.792L40.3052 54.691C41.5139 56.9936 43.0847 58.6851 45.8634 58.6851C48.1999 58.6851 49.6896 57.3223 49.6896 55.4426C49.6896 53.1873 48.1591 52.3883 45.5815 51.0731L44.1722 50.3676C40.1041 48.3478 37.4058 45.8103 37.4058 40.4536C37.4058 35.5197 40.6277 31.7605 45.6623 31.7605C49.2469 31.7605 51.8245 33.2174 53.677 37.0233L49.2867 40.3128C48.3199 38.2924 47.2732 37.4937 45.6621 37.4937C44.0107 37.4937 42.9635 38.7154 42.9635 40.3128C42.9635 42.2862 44.0107 43.0855 46.4271 44.3072L47.8366 45.0118C52.6296 47.4085 55.328 49.8517 55.328 55.3489C55.328 61.2699 51.3408 64.5117 45.9841 64.5117C40.7484 64.5117 37.3652 61.5985 35.7141 57.7923" fill="black"/>
</g>
<defs>
<clipPath id="clip0_118_5">
<rect width="60" height="70" fill="white"/>
</clipPath>
</defs>
</svg>
