<svg width="100" height="70" viewBox="0 0 100 70" fill="none" xmlns="http://www.w3.org/2000/svg">
<g clip-path="url(#clip0_118_9)">
<path d="M49.4356 69.798C49.0972 69.798 48.7812 69.6951 48.4877 69.5147L45.4859 67.4794C45.0344 67.1958 45.2602 67.0928 45.3957 67.0413C46.005 66.8095 46.1179 66.7577 46.7498 66.3458C46.8176 66.294 46.908 66.3199 46.9756 66.3714L49.2778 67.9431C49.3681 67.9946 49.4809 67.9946 49.5485 67.9431L58.5541 61.9913C58.6444 61.9398 58.6897 61.8366 58.6897 61.7079V49.8302C58.6897 49.7011 58.6444 49.5984 58.5541 49.5467L49.5485 43.6207C49.4583 43.569 49.3454 43.569 49.2778 43.6207L40.2722 49.5467C40.182 49.5981 40.1367 49.727 40.1367 49.83V61.7077C40.1367 61.8109 40.182 61.9396 40.2722 61.9913L42.7324 63.6144C44.0641 64.3873 44.8991 63.4856 44.8991 62.5838V50.8606C44.8991 50.7061 45.012 50.5514 45.17 50.5514H46.321C46.4565 50.5514 46.5919 50.6802 46.5919 50.8606V62.5838C46.5919 64.6192 45.6213 65.8045 43.9285 65.8045C43.4095 65.8045 43.0033 65.8045 41.8521 65.1602L39.4823 63.6144C38.8954 63.2281 38.5343 62.5065 38.5343 61.7336V49.8559C38.5343 49.083 38.8954 48.3613 39.4823 47.975L48.4877 42.0232C49.0521 41.6625 49.8196 41.6625 50.3837 42.0232L59.3892 47.975C59.976 48.3613 60.3373 49.083 60.3373 49.8559V61.7336C60.3373 62.5065 59.976 63.2281 59.3892 63.6144L50.3837 69.5662C50.0902 69.7209 49.7516 69.798 49.4356 69.798ZM52.2118 61.6306C48.2621 61.6306 47.4496 59.5694 47.4496 57.8173C47.4496 57.6626 47.5624 57.5081 47.7204 57.5081H48.8941C49.0294 57.5081 49.1423 57.6111 49.1423 57.7659C49.3229 59.1313 49.842 59.8012 52.2345 59.8012C54.1303 59.8012 54.9431 59.3117 54.9431 58.1522C54.9431 57.4823 54.7172 56.993 51.7605 56.6579C49.3003 56.3743 47.7655 55.7561 47.7655 53.5146C47.7655 51.4275 49.3005 50.1907 51.8734 50.1907C54.7623 50.1907 56.1843 51.3245 56.365 53.7977C56.365 53.8753 56.3423 53.9524 56.2972 54.0298C56.2519 54.0813 56.1843 54.1328 56.1166 54.1328H54.9429C54.83 54.1328 54.7172 54.0298 54.6947 53.9009C54.4238 52.484 53.7241 52.0201 51.8734 52.0201C49.7969 52.0201 49.5485 52.8447 49.5485 53.4629C49.5485 54.2101 49.842 54.442 52.6407 54.8542C55.4169 55.2666 56.7261 55.8591 56.7261 58.0748C56.7034 60.3423 55.0784 61.6306 52.2118 61.6306Z" fill="#539E43"/>
<path d="M21.4936 23.3435C21.4936 22.8798 21.2679 22.4415 20.9068 22.2097L11.337 15.923C11.1788 15.8198 10.9983 15.7683 10.8179 15.7425H10.7275C10.547 15.7425 10.3664 15.8198 10.2084 15.923L0.638573 22.2097C0.277293 22.4415 0.0517368 22.8796 0.0517368 23.3435L0.0743901 40.2454C0.0743901 40.4772 0.187266 40.7091 0.367711 40.8123C0.548351 40.9411 0.773907 40.9411 0.932089 40.8123L6.61981 37.1021C6.9809 36.8702 7.20665 36.4322 7.20665 35.9685V28.0585C7.20665 27.5948 7.4322 27.1567 7.79348 26.9249L10.2084 25.3273C10.389 25.1985 10.5921 25.1468 10.7952 25.1468C10.9983 25.1468 11.2014 25.1985 11.3596 25.3273L13.7745 26.9249C14.1358 27.1567 14.3614 27.5945 14.3614 28.0585V35.9685C14.3614 36.4322 14.5871 36.8702 14.9482 37.1021L20.6359 40.8123C20.8166 40.9411 21.0421 40.9411 21.2228 40.8123C21.4034 40.7091 21.5163 40.4772 21.5163 40.2454L21.4936 23.3435ZM67.492 0.0774124C67.3116 -0.0258041 67.0858 -0.0258041 66.9276 0.0774124C66.7472 0.206266 66.6343 0.412253 66.6343 0.6441V17.3917C66.6343 17.5462 66.5668 17.7007 66.4312 17.8039C66.2959 17.881 66.1604 17.881 66.025 17.8039L63.6326 16.2323C63.4572 16.1182 63.2588 16.0583 63.057 16.0583C62.8551 16.0583 62.6568 16.1182 62.4814 16.2323L52.9115 22.5447C52.5504 22.7766 52.3247 23.2146 52.3247 23.6783V36.2774C52.3247 36.7411 52.5504 37.1794 52.9115 37.4113L62.4814 43.7237C62.6568 43.8378 62.8551 43.8977 63.057 43.8977C63.2588 43.8977 63.4572 43.8378 63.6326 43.7237L73.2024 37.4113C73.5635 37.1794 73.7892 36.7414 73.7892 36.2774V4.86974C73.7892 4.38018 73.5635 3.94235 73.2024 3.71028L67.492 0.0774124ZM66.6119 32.1294C66.6119 32.2582 66.5668 32.3612 66.4763 32.4127L63.2037 34.5769C63.158 34.6024 63.1078 34.6156 63.057 34.6156C63.0061 34.6156 62.9559 34.6024 62.9102 34.5769L59.6376 32.4127C59.5472 32.3612 59.5021 32.2324 59.5021 32.1294V27.8008C59.5021 27.6719 59.5472 27.5689 59.6376 27.5174L62.9102 25.353C62.9559 25.3275 63.0061 25.3143 63.057 25.3143C63.1078 25.3143 63.158 25.3275 63.2037 25.353L66.4763 27.5174C66.5668 27.5687 66.6119 27.6978 66.6119 27.8008V32.1294ZM99.3388 27.6978C99.7001 27.4659 99.9032 27.0279 99.9032 26.5639V23.498C99.9032 23.0343 99.6774 22.5962 99.3388 22.3644L89.8367 16.0778C89.6613 15.9638 89.463 15.9039 89.2612 15.9039C89.0594 15.9039 88.8611 15.9638 88.6857 16.0778L79.1159 22.39C78.7546 22.6219 78.529 23.0599 78.529 23.5238V36.123C78.529 36.5866 78.7546 37.0247 79.1159 37.2565L88.6179 43.4402C88.9792 43.672 89.4079 43.672 89.7465 43.4402L95.5018 39.7819C95.6824 39.6787 95.7953 39.4468 95.7953 39.215C95.7953 38.9831 95.6824 38.7513 95.5018 38.6481L85.8868 32.3356C85.7064 32.207 85.5935 32.0008 85.5935 31.7689V27.8268C85.5935 27.595 85.7064 27.3631 85.8868 27.2599L88.8888 25.3017C88.9767 25.2386 89.0784 25.2051 89.1822 25.2051C89.286 25.2051 89.3878 25.2386 89.4756 25.3017L92.4774 27.2599C92.658 27.3888 92.7709 27.5948 92.7709 27.8268V30.9187C92.7709 31.1505 92.8838 31.3823 93.0642 31.4853C93.2449 31.6142 93.4704 31.6142 93.6511 31.4853L99.3388 27.6978Z" fill="#333333"/>
<path d="M89.1145 27.1052C89.148 27.0801 89.1872 27.0667 89.2273 27.0667C89.2674 27.0667 89.3066 27.0801 89.3401 27.1052L91.1684 28.3162C91.2361 28.3675 91.2812 28.4448 91.2812 28.548V30.9699C91.2812 31.0729 91.2361 31.1503 91.1684 31.2018L89.3401 32.4127C89.3066 32.4379 89.2674 32.4513 89.2273 32.4513C89.1872 32.4513 89.148 32.4379 89.1145 32.4127L87.2863 31.2018C87.2185 31.1503 87.1734 31.0729 87.1734 30.9699V28.548C87.1734 28.4448 87.2185 28.3675 87.2863 28.3162L89.1145 27.1052Z" fill="#539E43"/>
<path d="M37.496 16.1292C37.3206 16.0152 37.1223 15.9553 36.9205 15.9553C36.7187 15.9553 36.5203 16.0152 36.345 16.1292L26.8429 22.3898C26.4816 22.6216 26.2785 23.0597 26.2785 23.5234V36.0712C26.2785 36.5349 26.5043 36.9729 26.8429 37.2048L36.345 43.4658C36.5203 43.5797 36.7187 43.6397 36.9205 43.6397C37.1223 43.6397 37.3206 43.5797 37.496 43.4658L46.9982 37.2048C47.3593 36.9729 47.5626 36.5349 47.5626 36.0712V23.5236C47.5626 23.0599 47.3367 22.6218 46.9982 22.39L37.496 16.1292Z" fill="url(#paint0_linear_118_9)"/>
<mask id="mask0_118_9" style="mask-type:luminance" maskUnits="userSpaceOnUse" x="26" y="15" width="22" height="29">
<path d="M37.496 16.1292C37.3206 16.0152 37.1223 15.9553 36.9205 15.9553C36.7187 15.9553 36.5203 16.0152 36.345 16.1292L26.8429 22.3898C26.4816 22.6216 26.2785 23.0597 26.2785 23.5234V36.0712C26.2785 36.5349 26.5043 36.9729 26.8429 37.2048L36.345 43.4658C36.5203 43.5797 36.7187 43.6397 36.9205 43.6397C37.1223 43.6397 37.3206 43.5797 37.496 43.4658L46.9982 37.2048C47.3593 36.9729 47.5626 36.5349 47.5626 36.0712V23.5236C47.5626 23.0599 47.3367 22.6218 46.9982 22.39L37.496 16.1292Z" fill="white"/>
</mask>
<g mask="url(#mask0_118_9)">
<path d="M47.0207 22.3901L37.4735 16.1293C37.3797 16.0753 37.2814 16.0321 37.18 16.0005L26.4816 36.922C26.5702 37.0455 26.6773 37.1502 26.7978 37.2312L36.345 43.4922C36.6158 43.6726 36.9318 43.7241 37.2251 43.6208L47.2691 22.648C47.2013 22.545 47.1109 22.4672 47.0207 22.3901Z" fill="url(#paint1_linear_118_9)"/>
</g>
<mask id="mask1_118_9" style="mask-type:luminance" maskUnits="userSpaceOnUse" x="26" y="15" width="22" height="29">
<path d="M37.496 16.1292C37.3206 16.0152 37.1223 15.9553 36.9205 15.9553C36.7187 15.9553 36.5203 16.0152 36.345 16.1292L26.8429 22.3898C26.4816 22.6216 26.2785 23.0597 26.2785 23.5234V36.0712C26.2785 36.5349 26.5043 36.9729 26.8429 37.2048L36.345 43.4658C36.5203 43.5797 36.7187 43.6397 36.9205 43.6397C37.1223 43.6397 37.3206 43.5797 37.496 43.4658L46.9982 37.2048C47.3593 36.9729 47.5626 36.5349 47.5626 36.0712V23.5236C47.5626 23.0599 47.3367 22.6218 46.9982 22.39L37.496 16.1292Z" fill="white"/>
</mask>
<g mask="url(#mask1_118_9)">
<path fill-rule="evenodd" clip-rule="evenodd" d="M47.0434 37.2051C47.3142 37.0248 47.5173 36.7156 47.6077 36.3807L37.1347 15.9746C36.8638 15.9231 36.5703 15.9488 36.3223 16.1291L26.8427 22.3645L37.0669 43.6465C37.2156 43.6187 37.3601 43.5666 37.4958 43.492L47.0432 37.2054L47.0434 37.2051Z" fill="url(#paint2_linear_118_9)"/>
<path fill-rule="evenodd" clip-rule="evenodd" d="M47.0434 37.205L37.5186 43.466C37.3842 43.5442 37.2393 43.5965 37.0898 43.6205L37.2704 44.007L47.8333 37.0249V36.8702L47.5624 36.3547C47.5173 36.7154 47.3142 37.0246 47.0434 37.205Z" fill="url(#paint3_linear_118_9)"/>
<path fill-rule="evenodd" clip-rule="evenodd" d="M47.0434 37.205L37.5186 43.466C37.3842 43.5442 37.2393 43.5965 37.0898 43.6205L37.2704 44.007L47.8333 37.0249V36.8702L47.5624 36.3547C47.5173 36.7154 47.3142 37.0246 47.0434 37.205Z" fill="url(#paint4_linear_118_9)"/>
</g>
</g>
<defs>
<linearGradient id="paint0_linear_118_9" x1="1477.6" y1="500.071" x2="229.426" y2="2218.12" gradientUnits="userSpaceOnUse">
<stop stop-color="#41873F"/>
<stop offset="0.3288" stop-color="#418B3D"/>
<stop offset="0.6352" stop-color="#419637"/>
<stop offset="0.9319" stop-color="#3FA92D"/>
<stop offset="1" stop-color="#3FAE2A"/>
</linearGradient>
<linearGradient id="paint1_linear_118_9" x1="926.101" y1="1542.69" x2="3680.57" y2="231.748" gradientUnits="userSpaceOnUse">
<stop offset="0.1376" stop-color="#41873F"/>
<stop offset="0.4032" stop-color="#54A044"/>
<stop offset="0.7136" stop-color="#66B848"/>
<stop offset="0.9081" stop-color="#6CC04A"/>
</linearGradient>
<linearGradient id="paint2_linear_118_9" x1="-64.295" y1="1400.63" x2="2134.47" y2="1400.63" gradientUnits="userSpaceOnUse">
<stop offset="0.09192" stop-color="#6CC04A"/>
<stop offset="0.2864" stop-color="#66B848"/>
<stop offset="0.5968" stop-color="#54A044"/>
<stop offset="0.8624" stop-color="#41873F"/>
</linearGradient>
<linearGradient id="paint3_linear_118_9" x1="-1078.74" y1="421.074" x2="1120" y2="421.074" gradientUnits="userSpaceOnUse">
<stop offset="0.09192" stop-color="#6CC04A"/>
<stop offset="0.2864" stop-color="#66B848"/>
<stop offset="0.5968" stop-color="#54A044"/>
<stop offset="0.8624" stop-color="#41873F"/>
</linearGradient>
<linearGradient id="paint4_linear_118_9" x1="1440.33" y1="-1578.81" x2="722.096" y2="1718.04" gradientUnits="userSpaceOnUse">
<stop stop-color="#41873F"/>
<stop offset="0.3288" stop-color="#418B3D"/>
<stop offset="0.6352" stop-color="#419637"/>
<stop offset="0.9319" stop-color="#3FA92D"/>
<stop offset="1" stop-color="#3FAE2A"/>
</linearGradient>
<clipPath id="clip0_118_9">
<rect width="100" height="70" fill="white"/>
</clipPath>
</defs>
</svg>
