<svg width="60" height="70" viewBox="0 0 60 70" fill="none" xmlns="http://www.w3.org/2000/svg">
<g clip-path="url(#clip0_118_48)">
<path d="M29.7431 0.0197754C14.5496 0.0197754 15.4982 7.73762 15.4982 7.73762L15.5151 15.7335H30.014V18.1341H9.75633C9.75633 18.1341 0.0339661 16.8426 0.0339661 34.7996C0.0339661 52.7572 8.51989 52.1204 8.51989 52.1204H13.5843V43.7873C13.5843 43.7873 13.3112 33.8473 21.9347 33.8473H36.3151C36.3151 33.8473 44.3944 34.0002 44.3944 24.701V9.32511C44.3944 9.32511 45.6215 0.0197754 29.7431 0.0197754ZM21.7484 5.39687C22.091 5.39651 22.4303 5.47529 22.7469 5.62871C23.0635 5.78212 23.3512 6.00716 23.5935 6.29094C23.8357 6.57473 24.0279 6.91168 24.1588 7.28253C24.2898 7.65338 24.3571 8.05084 24.3568 8.45217C24.3571 8.8535 24.2898 9.25096 24.1588 9.62181C24.0279 9.99265 23.8357 10.3296 23.5935 10.6134C23.3512 10.8972 23.0635 11.1222 22.7469 11.2756C22.4303 11.429 22.091 11.5078 21.7484 11.5075C21.4058 11.5078 21.0665 11.429 20.7499 11.2756C20.4333 11.1222 20.1456 10.8972 19.9033 10.6134C19.6611 10.3296 19.469 9.99265 19.338 9.62181C19.207 9.25096 19.1397 8.8535 19.1401 8.45217C19.1397 8.05084 19.207 7.65338 19.338 7.28253C19.469 6.91168 19.6611 6.57473 19.9033 6.29094C20.1456 6.00716 20.4333 5.78212 20.7499 5.62871C21.0665 5.47529 21.4058 5.39651 21.7484 5.39687Z" fill="url(#paint0_linear_118_48)"/>
<path d="M30.1746 69.7601C45.3682 69.7601 44.4195 62.0423 44.4195 62.0423L44.4026 54.0466H29.9034V51.646H50.1611C50.1611 51.646 59.8835 52.9376 59.8835 34.98C59.8835 17.0227 51.3976 17.6595 51.3976 17.6595H46.3332V25.9923C46.3332 25.9923 46.6062 35.9323 37.9828 35.9323H23.6024C23.6024 35.9323 15.5231 35.7794 15.5231 45.0789V60.4551C15.5231 60.4551 14.2962 69.7601 30.1744 69.7601H30.1746ZM38.1693 64.3836C37.8267 64.3839 37.4874 64.3052 37.1708 64.1517C36.8542 63.9983 36.5665 63.7733 36.3242 63.4895C36.082 63.2057 35.8899 62.8688 35.7589 62.4979C35.6279 62.1271 35.5606 61.7296 35.561 61.3283C35.5606 60.9269 35.6279 60.5294 35.7588 60.1586C35.8898 59.7877 36.0819 59.4507 36.3242 59.1669C36.5664 58.8831 36.8541 58.658 37.1707 58.5046C37.4873 58.3511 37.8267 58.2723 38.1693 58.2727C38.5119 58.2723 38.8512 58.3511 39.1678 58.5045C39.4844 58.658 39.7721 58.883 40.0144 59.1668C40.2566 59.4506 40.4488 59.7875 40.5797 60.1584C40.7107 60.5292 40.778 60.9267 40.7777 61.328C40.778 61.7293 40.7107 62.1268 40.5797 62.4976C40.4488 62.8685 40.2566 63.2054 40.0144 63.4892C39.7721 63.773 39.4844 63.998 39.1678 64.1515C38.8512 64.3049 38.5119 64.3839 38.1693 64.3836Z" fill="url(#paint1_linear_118_48)"/>
</g>
<defs>
<linearGradient id="paint0_linear_118_48" x1="575.186" y1="627.292" x2="4000.98" y2="3522.76" gradientUnits="userSpaceOnUse">
<stop stop-color="#387EB8"/>
<stop offset="1" stop-color="#366994"/>
</linearGradient>
<linearGradient id="paint1_linear_118_48" x1="864.448" y1="1089.89" x2="4516.97" y2="4037.63" gradientUnits="userSpaceOnUse">
<stop stop-color="#FFE052"/>
<stop offset="1" stop-color="#FFC331"/>
</linearGradient>
<clipPath id="clip0_118_48">
<rect width="60" height="70" fill="white"/>
</clipPath>
</defs>
</svg>
